<svg width="99" height="19" viewBox="0 0 99 19" fill="none" xmlns="http://www.w3.org/2000/svg">
<path d="M8.456 18.24C6.888 18.24 5.416 17.984 4.04 17.472C2.664 16.944 1.472 16.192 0.464 15.216C0.224 14.976 0.104 14.704 0.104 14.4C0.104 14.048 0.264 13.712 0.584 13.392C0.84 13.136 1.12 13.008 1.424 13.008C1.744 13.008 2.128 13.192 2.576 13.56C3.328 14.248 4.216 14.784 5.24 15.168C6.28 15.536 7.352 15.72 8.456 15.72C9.512 15.72 10.336 15.544 10.928 15.192C11.52 14.824 11.816 14.312 11.816 13.656C11.816 12.968 11.496 12.416 10.856 12C10.216 11.568 9.128 11.184 7.592 10.848C5.176 10.32 3.416 9.624 2.312 8.76C1.224 7.896 0.68 6.784 0.68 5.424C0.68 4.56 0.968 3.792 1.544 3.12C2.12 2.432 2.92 1.904 3.944 1.536C4.984 1.152 6.168 0.959999 7.496 0.959999C8.984 0.959999 10.304 1.208 11.456 1.704C12.624 2.184 13.512 2.864 14.12 3.744C14.328 4.08 14.432 4.368 14.432 4.608C14.416 5.008 14.216 5.352 13.832 5.64C13.624 5.784 13.384 5.856 13.112 5.856C12.616 5.856 12.208 5.664 11.888 5.28C11.424 4.72 10.8 4.28 10.016 3.96C9.248 3.64 8.408 3.48 7.496 3.48C6.36 3.48 5.472 3.656 4.832 4.008C4.208 4.344 3.896 4.816 3.896 5.424C3.896 6.032 4.2 6.536 4.808 6.936C5.432 7.32 6.504 7.688 8.024 8.04C9.704 8.44 11.056 8.896 12.08 9.408C13.104 9.904 13.848 10.496 14.312 11.184C14.792 11.872 15.032 12.696 15.032 13.656C15.032 14.568 14.76 15.376 14.216 16.08C13.672 16.768 12.904 17.304 11.912 17.688C10.92 18.056 9.768 18.24 8.456 18.24ZM21.3168 18C20.1008 18 19.1568 17.68 18.4848 17.04C17.8128 16.4 17.4768 15.504 17.4768 14.352V4.752C17.4768 3.632 17.7968 2.76 18.4368 2.136C19.0928 1.512 19.9968 1.2 21.1488 1.2H28.6128C29.0928 1.2 29.4608 1.312 29.7168 1.536C29.9728 1.744 30.1008 2.048 30.1008 2.448C30.1008 2.832 29.9648 3.136 29.6928 3.36C29.4368 3.568 29.0768 3.672 28.6128 3.672H21.7008C21.3808 3.672 21.1248 3.776 20.9328 3.984C20.7568 4.192 20.6688 4.48 20.6688 4.848V8.184H26.7888C27.2688 8.184 27.6368 8.296 27.8928 8.52C28.1488 8.728 28.2768 9.032 28.2768 9.432C28.2768 9.816 28.1408 10.12 27.8688 10.344C27.6128 10.552 27.2528 10.656 26.7888 10.656H20.6688V14.352C20.6688 14.72 20.7568 15.008 20.9328 15.216C21.1248 15.424 21.3808 15.528 21.7008 15.528H29.1408C29.6208 15.528 29.9888 15.64 30.2448 15.864C30.5008 16.072 30.6288 16.376 30.6288 16.776C30.6288 17.16 30.4928 17.464 30.2208 17.688C29.9648 17.896 29.6048 18 29.1408 18H21.3168ZM36.9262 18C35.7102 18 34.7662 17.68 34.0942 17.04C33.4222 16.4 33.0862 15.504 33.0862 14.352V4.752C33.0862 3.632 33.4062 2.76 34.0462 2.136C34.7022 1.512 35.6062 1.2 36.7582 1.2H44.2222C44.7022 1.2 45.0702 1.312 45.3262 1.536C45.5822 1.744 45.7102 2.048 45.7102 2.448C45.7102 2.832 45.5742 3.136 45.3022 3.36C45.0462 3.568 44.6862 3.672 44.2222 3.672H37.3102C36.9902 3.672 36.7342 3.776 36.5422 3.984C36.3662 4.192 36.2782 4.48 36.2782 4.848V8.184H42.3982C42.8782 8.184 43.2462 8.296 43.5022 8.52C43.7582 8.728 43.8862 9.032 43.8862 9.432C43.8862 9.816 43.7502 10.12 43.4782 10.344C43.2222 10.552 42.8622 10.656 42.3982 10.656H36.2782V14.352C36.2782 14.72 36.3662 15.008 36.5422 15.216C36.7342 15.424 36.9902 15.528 37.3102 15.528H44.7502C45.2302 15.528 45.5982 15.64 45.8542 15.864C46.1102 16.072 46.2382 16.376 46.2382 16.776C46.2382 17.16 46.1022 17.464 45.8302 17.688C45.5742 17.896 45.2142 18 44.7502 18H36.9262ZM52.5356 18C51.3196 18 50.3756 17.68 49.7036 17.04C49.0316 16.4 48.6956 15.504 48.6956 14.352V4.752C48.6956 3.632 49.0156 2.76 49.6556 2.136C50.3116 1.512 51.2156 1.2 52.3676 1.2H57.9116C59.7676 1.2 61.1996 1.592 62.2076 2.376C63.2156 3.16 63.7196 4.296 63.7196 5.784C63.7196 6.52 63.5036 7.208 63.0716 7.848C62.6396 8.472 62.0796 8.944 61.3916 9.264V9.288C62.1596 9.592 62.7836 10.08 63.2636 10.752C63.7596 11.408 64.0076 12.12 64.0076 12.888C64.0076 14.488 63.4876 15.744 62.4476 16.656C61.4236 17.552 60.0076 18 58.1996 18H52.5356ZM57.9116 8.136C58.7276 8.136 59.3596 7.936 59.8076 7.536C60.2716 7.136 60.5036 6.56 60.5036 5.808C60.5036 5.072 60.2876 4.528 59.8556 4.176C59.4236 3.824 58.7756 3.648 57.9116 3.648H52.8716C52.5516 3.648 52.2956 3.752 52.1036 3.96C51.9276 4.168 51.8396 4.456 51.8396 4.824V8.136H57.9116ZM57.9116 15.552C59.8316 15.552 60.7916 14.68 60.7916 12.936C60.7916 12.184 60.5356 11.6 60.0236 11.184C59.5276 10.768 58.8236 10.56 57.9116 10.56H51.8396V14.376C51.8396 14.744 51.9276 15.032 52.1036 15.24C52.2956 15.448 52.5516 15.552 52.8716 15.552H57.9116ZM67.9252 18.216C67.4452 18.216 67.0612 18.088 66.7732 17.832C66.4852 17.576 66.3412 17.224 66.3412 16.776V8.376C66.3412 6.056 67.0052 4.24 68.3332 2.928C69.6612 1.616 71.5092 0.959999 73.8772 0.959999C75.4292 0.959999 76.7732 1.256 77.9092 1.848C79.0452 2.44 79.9092 3.296 80.5012 4.416C81.1092 5.536 81.4132 6.856 81.4132 8.376V16.776C81.4132 17.224 81.2692 17.576 80.9812 17.832C80.6932 18.088 80.3092 18.216 79.8292 18.216C79.3492 18.216 78.9572 18.088 78.6532 17.832C78.3652 17.56 78.2212 17.208 78.2212 16.776V12.864H69.5332V16.776C69.5332 17.208 69.3812 17.56 69.0772 17.832C68.7892 18.088 68.4052 18.216 67.9252 18.216ZM78.2212 10.392V8.304C78.2212 6.704 77.8532 5.504 77.1172 4.704C76.3972 3.888 75.3172 3.48 73.8772 3.48C70.9812 3.48 69.5332 5.088 69.5332 8.304V10.392H78.2212ZM96.9671 0.959999C97.4471 0.959999 97.8311 1.088 98.1191 1.344C98.4071 1.6 98.5511 1.952 98.5511 2.4V4.92C98.5511 7.048 98.0151 8.784 96.9431 10.128C95.8711 11.456 94.3751 12.264 92.4551 12.552V16.8C92.4551 17.232 92.3031 17.584 91.9991 17.856C91.7111 18.112 91.3271 18.24 90.8471 18.24C90.3671 18.24 89.9831 18.112 89.6951 17.856C89.4071 17.6 89.2631 17.248 89.2631 16.8V12.552C87.3271 12.264 85.8231 11.456 84.7511 10.128C83.6791 8.8 83.1431 7.064 83.1431 4.92V2.4C83.1431 1.952 83.2871 1.6 83.5751 1.344C83.8631 1.088 84.2471 0.959999 84.7271 0.959999C85.2071 0.959999 85.5911 1.096 85.8791 1.368C86.1831 1.624 86.3351 1.968 86.3351 2.4V4.992C86.3351 6.656 86.7191 7.936 87.4871 8.832C88.2711 9.712 89.3911 10.152 90.8471 10.152C92.3031 10.152 93.4151 9.712 94.1831 8.832C94.9671 7.936 95.3591 6.656 95.3591 4.992V2.4C95.3591 1.968 95.5031 1.624 95.7911 1.368C96.0951 1.096 96.4871 0.959999 96.9671 0.959999Z" fill="white"/>
</svg>
